<svg width="40" height="38" viewBox="0 0 40 38" fill="none" xmlns="http://www.w3.org/2000/svg">
<path d="M39.2188 0.108398H0.78125C0.349766 0.108398 0 0.458164 0 0.889648V7.64371C0 8.07519 0.349766 8.42496 0.78125 8.42496H1.8757V37.1103C1.8757 37.5418 2.22547 37.8915 2.65695 37.8915H37.343C37.7745 37.8915 38.1243 37.5418 38.1243 37.1103V8.42496H39.2188C39.6502 8.42496 40 8.07519 40 7.64371V0.889648C40 0.458164 39.6502 0.108398 39.2188 0.108398ZM14.8502 1.6709H25.1498V6.86246H14.8502V1.6709ZM14.8502 8.42496H25.1498V18.6308L23.4091 17.4234C23.1413 17.2377 22.7864 17.2377 22.5187 17.4233L20 19.1695L17.4812 17.4232C17.3473 17.3304 17.1917 17.284 17.0361 17.284C16.8804 17.284 16.7247 17.3305 16.5908 17.4233L14.8502 18.6307V8.42496ZM1.5625 6.86246V1.6709H13.2877V6.86246H1.5625ZM13.2877 8.42496V10.539H3.4382V8.42496H13.2877ZM21.2149 22.5448V36.329H3.4382V12.1014H13.2877V20.1235C13.2877 20.4142 13.4491 20.6808 13.7067 20.8157C13.9643 20.9505 14.2755 20.9311 14.5143 20.7654L17.0362 19.0161L19.5548 20.7622C19.8226 20.9478 20.1774 20.9478 20.4451 20.7622L22.9638 19.0161L25.4857 20.7654C25.6189 20.8578 25.7746 20.9047 25.931 20.9047C26.0549 20.9047 26.1794 20.8752 26.2932 20.8157C26.5508 20.6808 26.7122 20.4142 26.7122 20.1235V12.1014H30.1389C30.5703 12.1014 30.9202 11.7517 30.9202 11.3202C30.9202 10.8887 30.5703 10.5389 30.1389 10.5389H26.7122V8.42488H36.5617V21.7636H21.9962C21.5648 21.7636 21.2149 22.1133 21.2149 22.5448ZM36.5618 36.329H22.7774V23.326H36.5618V36.329ZM38.4375 6.86246H26.7123V1.6709H38.4375V6.86246Z" fill="#333333"/>
</svg>
