<svg width="41" height="41" viewBox="0 0 41 41" fill="none" xmlns="http://www.w3.org/2000/svg">
<path d="M31.0229 14.0271C30.9255 13.7949 30.8061 13.576 30.6671 13.373H32.7519C34.783 13.373 36.4355 11.7205 36.4355 9.68944C36.4355 7.65834 34.783 6.00585 32.7519 6.00585H26.3392C26.7469 5.41311 26.9863 4.69601 26.9863 3.92382C26.9863 1.89272 25.3338 0.240234 23.3027 0.240234H3.68359C1.65249 0.240234 0 1.89272 0 3.92382C0 5.95492 1.65249 7.60741 3.68359 7.60741H10.0962C9.68855 8.20015 9.4492 8.91724 9.4492 9.68944C9.4492 10.4616 9.68847 11.1787 10.0962 11.7715H8.0078C5.9767 11.7715 4.32421 13.424 4.32421 15.455C4.32421 16.6215 4.86986 17.6625 5.71877 18.3379C4.86986 19.0132 4.32421 20.0542 4.32421 21.2207C4.32421 22.3872 4.86986 23.4281 5.71877 24.1035C4.86986 24.7788 4.32421 25.8198 4.32421 26.9863C4.32421 28.1528 4.86986 29.1937 5.71877 29.8691C4.86986 30.5445 4.32421 31.5854 4.32421 32.7519C4.32421 34.783 5.9767 36.4355 8.0078 36.4355H17.445C19.9311 39.0946 23.4678 40.7598 27.3867 40.7598C34.8931 40.7598 41 34.6529 41 27.1465C41 20.8991 36.7695 15.6219 31.0229 14.0271ZM32.7519 7.60741C33.9 7.60741 34.8339 8.54144 34.8339 9.68944C34.8339 10.8374 33.9 11.7715 32.7519 11.7715H27.6269H13.1328C11.9847 11.7715 11.0508 10.8374 11.0508 9.68944C11.0508 8.54144 11.9847 7.60741 13.1328 7.60741H32.7519ZM3.68359 6.00585C2.53551 6.00585 1.60156 5.07182 1.60156 3.92382C1.60156 2.77582 2.53551 1.84179 3.68359 1.84179H23.3027C24.4508 1.84179 25.3847 2.77582 25.3847 3.92382C25.3847 5.07182 24.4508 6.00585 23.3027 6.00585H3.68359ZM8.0078 13.373H27.6269C27.9495 13.373 28.2583 13.448 28.5354 13.5822C28.1566 13.5504 27.7737 13.5333 27.3867 13.5333C23.6275 13.5333 20.2194 15.0651 17.7534 17.5371H8.0078C6.8598 17.5371 5.92577 16.603 5.92577 15.455C5.92577 14.3071 6.8598 13.373 8.0078 13.373ZM8.0078 19.1386H16.3852C15.4761 20.3841 14.7733 21.7888 14.3269 23.3027H8.0078C6.85972 23.3027 5.92577 22.3687 5.92577 21.2207C5.92577 20.0727 6.85972 19.1386 8.0078 19.1386ZM8.0078 24.9043H13.9592C13.8377 25.634 13.7735 26.3828 13.7735 27.1465C13.7735 27.7988 13.8207 28.4403 13.9098 29.0683H8.0078C6.85972 29.0683 5.92577 28.1344 5.92577 26.9863C5.92577 25.8382 6.85972 24.9043 8.0078 24.9043ZM8.0078 34.8339C6.85972 34.8339 5.92577 33.9 5.92577 32.7519C5.92577 31.6038 6.85972 30.6699 8.0078 30.6699H14.2367C14.6408 32.1764 15.2972 33.5804 16.1581 34.8339H8.0078ZM27.3867 39.1582C20.7635 39.1582 15.3751 33.7698 15.3751 27.1465C15.3751 20.5233 20.7635 15.1348 27.3867 15.1348C34.01 15.1348 39.3984 20.5233 39.3984 27.1465C39.3984 33.7698 34.01 39.1582 27.3867 39.1582Z" fill="#333333"/>
</svg>
