<?xml version="1.0" encoding="iso-8859-1"?>
<!-- Generator: Adobe Illustrator 19.0.0, SVG Export Plug-In . SVG Version: 6.00 Build 0)  -->
<svg version="1.1" id="Layer_1" xmlns="http://www.w3.org/2000/svg" xmlns:xlink="http://www.w3.org/1999/xlink" x="0px" y="0px"
	 viewBox="0 0 511.187 511.187" style="enable-background:new 0 0 511.187 511.187;" xml:space="preserve">
<g transform="translate(1 1)">
	<g>
		<g>
			<path d="M101.4,369.794c-9.387,0-17.067,7.68-17.067,17.067s7.68,17.067,17.067,17.067c9.387,0,17.067-7.68,17.067-17.067
				S110.787,369.794,101.4,369.794z"/>
			<path d="M408.6,369.794c-9.387,0-17.067,7.68-17.067,17.067s7.68,17.067,17.067,17.067s17.067-7.68,17.067-17.067
				S417.987,369.794,408.6,369.794z"/>
			<path d="M510.147,368.087V244.354c0-14.507-11.947-27.307-27.307-27.307H447l-0.853-0.853l-6.827-8.533h0l-49.493-62.293
				c-7.68-9.387-17.92-14.507-29.867-14.507H306.2h-34.133V95.873c0-18.773-14.507-33.28-32.427-33.28H32.28
				C13.507,62.594-1,77.1-1,95.873v180.053v17.067v76.8c0,14.507,11.093,25.6,25.6,25.6h17.669
				c4.075,29.155,28.753,51.2,59.131,51.2c30.378,0,55.056-22.045,59.131-51.2H255h17.067h77.403
				c4.075,29.155,28.753,51.2,59.131,51.2s55.056-22.045,59.131-51.2h15.963C498.2,395.394,511,382.594,510.147,368.087z
				 M359.96,147.927c6.827,0,12.8,2.56,17.067,7.68l28.16,34.987h-1.707h0h-74.24c-3.413,0-5.973-2.56-5.973-5.973v-36.693H359.96z
				 M16.067,216.194h119.467c5.12,0,8.533-3.413,8.533-8.533s-3.413-8.533-8.533-8.533H16.067v-25.6H101.4
				c5.12,0,8.533-3.413,8.533-8.533c0-5.12-3.413-8.533-8.533-8.533H16.067V95.873c0-9.387,6.827-16.213,16.213-16.213h206.507
				c9.387,0,16.213,7.68,16.213,16.213v34.987v145.067H16.067V216.194z M101.4,429.527c-23.893,0-42.667-18.773-42.667-42.667
				s18.773-42.667,42.667-42.667c23.893,0,42.667,18.773,42.667,42.667S125.293,429.527,101.4,429.527z M255,378.327h-94.469
				c-3.821-27.339-25.761-48.416-53.528-50.936c-0.203-0.019-0.409-0.029-0.613-0.046c-0.699-0.056-1.397-0.114-2.103-0.147
				c-0.957-0.046-1.919-0.072-2.887-0.072s-1.93,0.026-2.887,0.072c-0.706,0.033-1.404,0.09-2.103,0.147
				c-0.204,0.017-0.41,0.027-0.613,0.046c-27.767,2.52-49.707,23.597-53.528,50.936H24.6c-5.12,0-8.533-3.413-8.533-8.533v-76.8H255
				V378.327z M408.6,429.527c-23.893,0-42.667-18.773-42.667-42.667s18.773-42.667,42.667-42.667
				c23.893,0,42.667,18.773,42.667,42.667S432.493,429.527,408.6,429.527z M482.84,378.327h-15.109
				c-3.821-27.339-25.761-48.416-53.528-50.936c-0.203-0.019-0.409-0.029-0.613-0.046c-0.699-0.056-1.397-0.114-2.103-0.147
				c-0.957-0.046-1.919-0.072-2.887-0.072s-1.93,0.026-2.887,0.072c-0.706,0.033-1.404,0.09-2.103,0.147
				c-0.204,0.017-0.41,0.027-0.613,0.046c-27.767,2.52-49.707,23.597-53.528,50.936h-77.403v-85.333v-17.067v-128H306.2v36.693
				c0,12.8,10.24,23.04,23.04,23.04h87.893h0l15.36,19.627c3.413,4.267,8.533,6.827,14.507,6.827h35.84
				c5.12,0,10.24,4.267,10.24,10.24v31.573H357.4c-5.12,0-8.533,3.413-8.533,8.533c0,5.12,3.413,8.533,8.533,8.533h135.68v74.24
				C493.08,373.207,488.813,378.327,482.84,378.327z"/>
		</g>
	</g>
</g>
<g>
</g>
<g>
</g>
<g>
</g>
<g>
</g>
<g>
</g>
<g>
</g>
<g>
</g>
<g>
</g>
<g>
</g>
<g>
</g>
<g>
</g>
<g>
</g>
<g>
</g>
<g>
</g>
<g>
</g>
</svg>
